<svg xmlns="http://www.w3.org/2000/svg" xmlns:xlink="http://www.w3.org/1999/xlink" viewBox="0 0 131.77 443.4"><defs><style>.cls-1{fill:none;}.cls-2,.cls-4{fill:#d87db3;}.cls-2{opacity:0.12;}.cls-3,.cls-5{fill:#80cfd6;}.cls-3{opacity:0.2;}.cls-6{fill:#333;}.cls-7{clip-path:url(#clip-path);}.cls-8{fill:#726f71;}.cls-9{fill:#d5cd7e;}.cls-10{fill:#98cd7f;}</style><clipPath id="clip-path"><path class="cls-1" d="M74.66,356.91l-3.2.2L70,357l-2.3-.1-1.5-.2-2.4-.4-1.6-.3-2.3-.4-1.5-.4-2.1-.8-1.4-.5-2.1-.9-1.4-.7-2-1.3-1.3-1-1.3-1.2-1.1-1.3-1.6-2-.9-1.3-1.2-2-.7-1.3-1-2.1-.5-1.5-.8-2.2-.4-1.5-.4-2.3-.3-1.5-.2-3.1v-4.6l.2-2.3.1-1.5.6-5.5.3-1.6.1-.9.5-1.6.3-.8.7-1.6,1-2.2.9-1.5,1-1.5,2.2-2.6,1.1-1.1,1.7-1.3,1.2-.9,2.6-1.6,1.4-.9,1.5-.8,1.6-.7,1.5-.6,1.4-.4,1.5-.4,2.2-.4,1.7-.3,1.7-.2,3.4-.2,1.6-.1,6.1.3h1.6l6.1-.2h1.6l6.1.3h9.3l3.2-.2h1.7l1.7.1,1.6.3.9.7.3,1.3.2,3.3-.3,3.8v1.6l.1,3.3-.1,1.5-.1,2.3-.3,1.3-.8.8-1.3.3-1.4.1h-1.5l-3.9-.2h-1.6l-6.1.3h-1.6l-6.1-.1h-1.6l-6.1-.3h-1.6l-6.1-.1-1.6.1-2.5.2-1.6.3-2.2.6-1.5.6-2.3,1-1.2,1-1.7,1.6-.8,1.3-.8,2.2-.4,1.5-.2,2.6v1.6l.5,2.6.4,1.5.9,1.9.8,1.3,1.4,1.6,1.2,1,2.1,1.1,1.5.7,1.6.5,1.6.3,3,.4,1.6.1,6.1-.4h1.6l6.2.3H87l6.1.2h1.6l6.2-.2,1.6-.1,4.2-.3h2.5l1.4.4.8.9.3,1.3v2.1l-.4,5.1v1.6l.3,4v1.6l-.1,1.5-.3,1.3-.7.8-1.2.1-3,.1h-1.5l-2.3-.1h-1.6l-6.2.3h-1.6L87,357h-1.6l-6.2-.4Z"/></clipPath></defs><title>emil</title><g id="Layer_2" data-name="Layer 2"><g id="Layer_1-2" data-name="Layer 1"><rect class="cls-2" y="27.48" width="71.18" height="40.41"/><rect class="cls-2" x="32.87" y="403" width="71.18" height="40.41"/><rect class="cls-3" x="60.59" y="335.92" width="71.18" height="40.41"/><rect class="cls-3" x="55.76" y="61.77" width="71.18" height="40.41"/><ellipse class="cls-4" cx="77.52" cy="98.5" rx="15.73" ry="12.83"/><ellipse class="cls-5" cx="87.95" cy="179.97" rx="14.61" ry="18.21"/><path class="cls-6" d="M100,55.6l-1.6.1-1.5-.1-1.1-.1-.7-.3-.5-.6-.3-1.1V51.4l.4-3,.1-1.6V40.3l-.4-11.4.3-4.5V22.2l-.3-1-.7-.4-1.4-.1-8.9-.2-1.1.1-.6.1-.4.5L81,22.4V25l.3,3.4.1,1.6-.2,6v7.6l.1,1.5.3,3.8v2.4l-.2,1.1-.5.6-.8.4-1.2.2-.8.1-1.5.1-3-.2h-1.5l-2.3.1-1.5-.1-1.6-.1-1.2-.2-.8-.3-.4-.5L64,51.3V48.9l.5-3.7.1-1.6-.2-6V36l.2-10.8-.1-1.5-.2-1.4-.3-1-.6-.4h-1.3l-5.7-.1h-1.6l-5.6-.4h-1.6l-2.2.1-1.6-.1-1.7-.1-1.2-.1-.6-.3-.3-.6-.2-1.1-.2-1.7-.1-1.6.1-3.7V9.6l-.3-4.1.2-3,.2-1.1.4-.6.7-.2,1.1-.1,5.3-.3,1.6-.1,5.3-.1,1.6.1L61,.5l1.6.1,5.3-.3h1.6l5.4-.3h1.6l5.3.2h8.5l5.3.2h8.5l5.3.2,1.2.1.7.2.3.6.2,1V4.7l-.3,3.8v1.6l.3,5.9v1.6l-.3,5.8V25l.3,5.9.1,1.6-.3,5.9V40l.3,5.9v1.6l-.1,2.5-.1,1.6-.2,1.7-.1,1.1-.3.6-.6.4-1.1.1-.9.1H107l-3-.2h-1.6Z"/><path class="cls-6" d="M42.46,137.91l-1.4.3-1.1-.7-.5-1.1-.2-1.3v-1.4l.2-2.3.1-1.5v-4.5l-.4-6.2.5-1.3.7-.6,1.1-.5,8.4-3.1,1-.7.2-.9.1-1.2.4-6v-1.6l.2-7.5.1-6V88.3l-.1-1.5V82.2l-.2-1.3-.5-.8-1.2-.6-6.8-2.3-1.6-.6-1.3-1.1-.5-1.5V72.4l.3-5.8V65l-.4-6.2-.1-1.3.6-1.2,1.1-.8,1.3.1.8.2,1.6.6L48,57.8l1.5.6,5.6,2.5,1.4.6,5.6,2.6,1.5.6L69,67l1.5.6,5.6,2.7,1.4.6,8.2,3.6,6,2.8,1.6.7,4.5,2.2,1.6.7,4.6,1.9,1.5.6,4.1,1.8,1.1.5.6,1,.3,1.5.2,4.6v7.8l-.1,4.6-.3,1.7-.8,1.1-1.3.5-3.9,1.4-1.5.6-4.7,2.5-1.4.6-4.9,2.2-1.4.6-5.1,1.8-1.4.6-4.8,2.2-1.4.6-4.9,2.2-1.4.6-5,2-1.4.6-6.2,3.1-4.7,2.4-1.4.7-6.3,2.7Zm28.2-33.4,1.3-.4,6.8-2.2,1.5-.5,5.9-2,1.3-.5.7-1,.3-1.3-.3-1.1-1-1-6.8-2.7-1.5-.6-6.7-2.6-1.5-.3-1.2.3L69,89.7l-.2,1.4v6.3l-.3,4.7.4,1.3.8.8Z"/><path class="cls-6" d="M40,215.6l-.4-1.3v-7l.1-5.5v-1.6l-.2-4.5v-1.3l.4-.9.8-.8,4.5-3.2,1.2-.9,4.3-3.2,1.2-.9,4.6-2.8,1.2-.9,4.3-3.2.8-.7.3-.6.1-1.2.2-3.2-.1-1.3-.6-.8-1.3-.3-5.5-.2-1.6.1-5.6.4-1.6.1-2.4.1h-1.6l-1.6-.1-1.2-.2-.5-.5-.3-1.1v-1.6l.3-4.8-.3-4.6v-1.6l.3-4.6.2-1.2.4-.6,1-.2,1.4-.1,1.5-.1,2.6.2,1.6.1,5.4.4h1.6l5.4-.3,1.6-.1,5.3-.1h1.6l5.4.3h1.6l5.4-.3h1.6l5.4.3h1.6l5.3.2h1.6l5.4-.1h1.6l3.3-.2,1.5.1.6.1,1.3.3.8.6.3,1.2.1.8.1,1.5-.2,4.5-.4,11.9.4,6.8v1.6l-.4,6.6v3.8l-.1,1.7-.3,1.5-.6,2.1-.5,1.5-.6,1.5-.6,1.6-.7,1.5-.8,1.3-1.3,1.9-.9,1.1-1,1-1.2,1-2,1.4-1.3.9-1.9,1.2-1.4.7-1.5.7-1.6.5-1.6.3-1.6.1-2.2.2h-1.6l-1.6-.1-1.7-.2-1.7-.3-1.6-.4-1.5-.6-1.5-.7-1.5-.9-1.3-.9-1.2-.9-1.1-.9-1.6-1.6-.9-1.1-1.1-2-.7-1.2-.7-1.3-.3-1.3-.3-.8-.8.4-5.1,3.6-1.2.9-4.9,3.6-1.2,1-5,3.6-1.2,1-3.6,3.1-1.1.9-1.1.5Zm38.9-28.1.5,1.3.7,1.2,1.2,1,1.5.7,1.6.4,1.6.1,1.7-.1,1.7-.2,1.5-.4,1.5-.7,1.2-.9.9-1.1.6-1.4.5-2.2.2-1.6.1-5V177l-.3-5.1-.1-1.2-.3-.7-.6-.6-1.1-.1-2.3.1-1.6.2-1.7.2-1.7.1-5.5-.2-1.1.1-.6.2-.3.7-.2,1.2-.4,5.2v1.6l.4,6.6Z"/><path class="cls-6" d="M103.86,279.5l-1.5-.1-3,.1-1.6-.1-.8-.1-1.2-.2-.7-.3-.5-.6-.2-1.2v-1.6l.3-3,.1-1.6-.3-4.6v-1.6l.2-2.5v-1.5l-.1-.7-.3-1-.6-.4-1.3-.1-5.9-.4h-1.6l-6,.4-1.6-.1-6-.4-1.6-.1-5.9.2h-9.2l-5.9-.2-1.5.1-4.5.5-1.6.1-1.2-.3-.5-.5-.2-1.3.1-1.9.3-2.5.1-1.7-.3-4.5v-1.6l.3-4.5.1-1.2.3-.6,1.1-.2h1.7l4.2.3,1.6.1h7.5l6,.1h1.6l5.9.1h1.6l6-.4,1.6-.1h7.6l5.9-.2h1.4l.8-.3.2-1v-1.5l-.2-3.2v-1.8l.2-2.7.1-1.7-.1-1.7-.1-2.3v-1.5l.1-.8L95,218l.4-.6.6-.4,1-.2h.7l1.6-.1,3,.2h1.5l3.8-.3,1.6.1,1.3.3.7.4.3.6.2,1v2.3l-.3,3.7v1.6l.4,5.8V234l-.5,5.9v1.6l.5,7.4-.1,5.8v1.6l.1,7.5v7.4l.2,3.3-.1,1.7-.1.8-.2,1.2-.4.7-.7.5-1.2.2h-.7l-1.5.1Z"/><path class="cls-6" d="M41.55,435.7l-.9.5-.5-.3-.6-.3-.4-.7v-1.3l.4-5.4v-1.6l.1-6.3v-1.6l-.3-6.4.1-1.2.7-.9,3.9-3.5,1.2-.9,4.4-3.1,1.1-.9,3.9-3.9,1.2-1,3.9-3.3,1.1-.8.9-.5.3-.7-.4-.6-1.3-.2h-6.9l-5.4-.2h-1.6l-2.4.1h-1.5l-1.5-.1-1-.1-.4-.5-.2-1.2-.2-3.1v-3.1l.4-4.6-.1-1.6-.4-5,.3-.8.6-.4.9-.1,1.4-.1H44l2.5.1,1.7.1,5.4-.4h7l1.6.1,5.5.3,1.6.1h7l5.4-.2h1.6l5.5.2h1.6l12.4-.2h1.6l5.4.3,1.2.1.5.3.2,1-.1,1.5-.3,3.1V378l.4,4.6v1.6l-.3,4.6-.1,1.1-.3.5-.8.3-1,.1-1.3-.1-3.3-.3-1.6-.1-5.3.3h-1.6l-5.3.1-1.1.2-.2.8.7,1.1,4.3,3.1,6.5,5.4,4.3,3.1,1.2,1,4,3.5.8.8.2,1,.3,4.6v1.6l-.4,6.1-.1,3.8v1.6l.1,3.8-.1,1.1-.4.5-.2.2-.3-.1-.9-.8-4.2-3.8-1.2-1-4.6-3.5-1.2-1L94,419.9l-1.2-1-4.4-3.7-1.2-1-4.4-3.6-1.2-1.1-2.3-2.5-1.2-1.1-.6-.5-.8-.5-.6.2-.9.7-4.9,3.7-1.2,1.1-4.4,4.4-1.2,1-4.8,3.9-1.2,1-4.6,4.1-1.2,1-4.5,4.3-1.2,1Z"/><g class="cls-7"><path class="cls-8" d="M74.76,356.7l-3.2.2-1.5-.1-2.3-.1-1.5-.2-2.4-.4-1.6-.3-2.3-.4-1.5-.4-2.1-.8-1.4-.5-2.1-.9-1.4-.7-2-1.3-1.3-1-1.3-1.2-1.1-1.3-1.6-2-.9-1.3-1.2-2-.7-1.3-1-2.1-.5-1.5-.8-2.2-.4-1.5-.4-2.3-.3-1.5-.2-3.1v-4.6l.2-2.3.1-1.5.6-5.5L39,311l.1-.9.5-1.6.3-.8.7-1.6,1-2.2.9-1.5,1-1.5,2.2-2.6,1.1-1.1,1.7-1.3,1.2-.9,2.6-1.6,1.4-.9,1.5-.8,1.6-.7,1.5-.6,1.4-.4,1.5-.4,2.2-.4,1.7-.3,1.7-.2,3.4-.2,1.6-.1,6.1.3h1.6l6.1-.2h1.6l6.1.3h9.3l3.2-.2h1.7l1.7.1,1.6.3.9.7.3,1.3.2,3.3-.3,3.8v1.6l.1,3.3-.1,1.5-.1,2.3-.3,1.3-.8.8-1.3.3-1.4.1h-1.5l-3.9-.2H101l-6.1.3h-1.6l-6.1-.1h-1.6l-6.1-.3h-1.6l-6.1-.1-1.6.1-2.5.2-1.6.3-2.2.6-1.5.6-2.3,1-1.2,1-1.7,1.6-.8,1.3-.8,2.2-.4,1.5-.2,2.6v1.6l.5,2.6.4,1.5.9,1.9.8,1.3,1.4,1.6,1.2,1,2.1,1.1,1.5.7,1.6.5,1.6.3,3,.4,1.6.1,6.1-.4h1.6l6.2.3h1.6l6.1.2h1.6l6.2-.2,1.6-.1,4.2-.3h2.5l1.4.4.8.9.3,1.3v2.1l-.4,5.1v1.6l.3,4V353l-.1,1.5-.3,1.3-.7.8-1.2.1-3,.1h-1.5l-2.3-.1H101l-6.2.3h-1.6l-6.1-.2h-1.6l-6.2-.4Z"/><rect class="cls-4" x="108.67" y="292.39" width="2.86" height="2.86" transform="translate(403.92 183.71) rotate(90)"/><rect class="cls-5" x="108.67" y="295.24" width="2.86" height="2.86" transform="translate(406.78 186.57) rotate(90)"/><rect class="cls-9" x="108.67" y="298.1" width="2.86" height="2.86" transform="translate(409.64 189.43) rotate(90)"/><rect class="cls-10" x="108.67" y="300.96" width="2.86" height="2.86" transform="translate(412.49 192.29) rotate(90)"/><rect class="cls-4" x="105.81" y="298.1" width="2.86" height="2.86" transform="translate(406.78 192.29) rotate(90)"/><rect class="cls-5" x="105.81" y="300.96" width="2.86" height="2.86" transform="translate(409.64 195.15) rotate(90)"/><rect class="cls-9" x="105.81" y="303.82" width="2.86" height="2.86" transform="translate(412.49 198.01) rotate(90)"/><rect class="cls-10" x="105.81" y="306.68" width="2.86" height="2.86" transform="translate(415.35 200.87) rotate(90)"/><rect class="cls-4" x="102.95" y="300.96" width="2.86" height="2.86" transform="translate(406.78 198.01) rotate(90)"/><rect class="cls-5" x="102.95" y="303.82" width="2.86" height="2.86" transform="translate(409.64 200.87) rotate(90)"/><rect class="cls-4" x="108.67" y="303.82" width="2.86" height="2.86" transform="translate(415.35 195.15) rotate(90)"/><rect class="cls-5" x="108.67" y="306.68" width="2.86" height="2.86" transform="translate(418.21 198.01) rotate(90)"/><rect class="cls-9" x="102.95" y="292.39" width="2.86" height="2.86" transform="translate(398.2 189.43) rotate(90)"/><rect class="cls-10" x="102.95" y="295.24" width="2.86" height="2.86" transform="translate(401.06 192.29) rotate(90)"/><rect class="cls-9" x="105.81" y="295.24" width="2.86" height="2.86" transform="translate(-189.43 403.92) rotate(-90)"/><rect class="cls-10" x="105.81" y="292.39" width="2.86" height="2.86" transform="translate(-186.57 401.06) rotate(-90)"/><rect class="cls-4" x="100.09" y="295.24" width="2.86" height="2.86" transform="translate(398.2 195.15) rotate(90)"/><rect class="cls-4" x="102.95" y="306.68" width="2.86" height="2.86" transform="translate(412.49 203.73) rotate(90)"/><rect class="cls-5" x="100.09" y="298.1" width="2.86" height="2.86" transform="translate(401.06 198.01) rotate(90)"/><rect class="cls-5" x="100.09" y="292.39" width="2.86" height="2.86" transform="translate(395.34 192.29) rotate(90)"/><rect class="cls-9" x="100.09" y="300.96" width="2.86" height="2.86" transform="translate(403.92 200.87) rotate(90)"/><rect class="cls-9" x="100.09" y="306.68" width="2.86" height="2.86" transform="translate(409.64 206.59) rotate(90)"/><rect class="cls-9" x="102.95" y="298.1" width="2.86" height="2.86" transform="translate(403.92 195.15) rotate(90)"/><rect class="cls-10" x="100.09" y="303.82" width="2.86" height="2.86" transform="translate(406.78 203.73) rotate(90)"/><rect class="cls-4" x="97.23" y="292.39" width="2.86" height="2.86" transform="translate(392.48 195.15) rotate(90)"/><rect class="cls-5" x="97.23" y="295.24" width="2.86" height="2.86" transform="translate(395.34 198.01) rotate(90)"/><rect class="cls-9" x="97.23" y="298.1" width="2.86" height="2.86" transform="translate(398.2 200.87) rotate(90)"/><rect class="cls-10" x="97.23" y="300.96" width="2.86" height="2.86" transform="translate(401.06 203.73) rotate(90)"/><rect class="cls-4" x="94.37" y="298.1" width="2.86" height="2.86" transform="translate(395.34 203.73) rotate(90)"/><rect class="cls-5" x="94.37" y="300.96" width="2.86" height="2.86" transform="translate(398.2 206.59) rotate(90)"/><rect class="cls-9" x="94.37" y="303.82" width="2.86" height="2.86" transform="translate(401.06 209.45) rotate(90)"/><rect class="cls-10" x="94.37" y="306.68" width="2.86" height="2.86" transform="translate(403.92 212.31) rotate(90)"/><rect class="cls-4" x="91.51" y="300.96" width="2.86" height="2.86" transform="translate(395.34 209.45) rotate(90)"/><rect class="cls-5" x="91.51" y="303.82" width="2.86" height="2.86" transform="translate(398.2 212.31) rotate(90)"/><rect class="cls-4" x="97.23" y="303.82" width="2.86" height="2.86" transform="translate(403.92 206.59) rotate(90)"/><rect class="cls-5" x="97.23" y="306.68" width="2.86" height="2.86" transform="translate(406.78 209.45) rotate(90)"/><rect class="cls-9" x="91.51" y="292.39" width="2.86" height="2.86" transform="translate(386.76 200.87) rotate(90)"/><rect class="cls-10" x="91.51" y="295.24" width="2.86" height="2.86" transform="translate(389.62 203.73) rotate(90)"/><rect class="cls-9" x="94.37" y="295.24" width="2.86" height="2.86" transform="translate(-200.87 392.48) rotate(-90)"/><rect class="cls-10" x="94.37" y="292.39" width="2.86" height="2.86" transform="translate(-198.01 389.62) rotate(-90)"/><rect class="cls-4" x="88.65" y="295.24" width="2.86" height="2.86" transform="translate(386.76 206.59) rotate(90)"/><rect class="cls-4" x="91.51" y="306.68" width="2.86" height="2.86" transform="translate(401.06 215.17) rotate(90)"/><rect class="cls-5" x="88.65" y="298.1" width="2.86" height="2.86" transform="translate(389.62 209.45) rotate(90)"/><rect class="cls-5" x="88.65" y="292.39" width="2.86" height="2.86" transform="translate(383.9 203.73) rotate(90)"/><rect class="cls-9" x="88.65" y="300.96" width="2.86" height="2.86" transform="translate(392.48 212.31) rotate(90)"/><rect class="cls-9" x="88.65" y="306.68" width="2.86" height="2.86" transform="translate(398.2 218.03) rotate(90)"/><rect class="cls-9" x="91.51" y="298.1" width="2.86" height="2.86" transform="translate(392.48 206.59) rotate(90)"/><rect class="cls-10" x="88.65" y="303.82" width="2.86" height="2.86" transform="translate(395.34 215.17) rotate(90)"/><rect class="cls-4" x="85.79" y="292.39" width="2.86" height="2.86" transform="translate(381.04 206.59) rotate(90)"/><rect class="cls-5" x="85.79" y="295.24" width="2.86" height="2.86" transform="translate(383.9 209.45) rotate(90)"/><rect class="cls-9" x="85.79" y="298.1" width="2.86" height="2.86" transform="translate(386.76 212.31) rotate(90)"/><rect class="cls-10" x="85.79" y="300.96" width="2.86" height="2.86" transform="translate(389.62 215.17) rotate(90)"/><rect class="cls-4" x="82.93" y="298.1" width="2.86" height="2.86" transform="translate(383.9 215.17) rotate(90)"/><rect class="cls-5" x="82.93" y="300.96" width="2.86" height="2.86" transform="translate(386.76 218.03) rotate(90)"/><rect class="cls-9" x="82.93" y="303.82" width="2.86" height="2.86" transform="translate(389.62 220.89) rotate(90)"/><rect class="cls-10" x="82.93" y="306.68" width="2.86" height="2.86" transform="translate(392.48 223.75) rotate(90)"/><rect class="cls-4" x="80.07" y="300.96" width="2.86" height="2.86" transform="translate(383.9 220.89) rotate(90)"/><rect class="cls-5" x="80.07" y="303.82" width="2.86" height="2.86" transform="translate(386.76 223.75) rotate(90)"/><rect class="cls-4" x="85.79" y="303.82" width="2.86" height="2.86" transform="translate(392.48 218.03) rotate(90)"/><rect class="cls-5" x="85.79" y="306.68" width="2.86" height="2.86" transform="translate(395.34 220.89) rotate(90)"/><rect class="cls-9" x="80.07" y="292.39" width="2.86" height="2.86" transform="translate(375.32 212.31) rotate(90)"/><rect class="cls-10" x="80.07" y="295.24" width="2.86" height="2.86" transform="translate(378.18 215.17) rotate(90)"/><rect class="cls-9" x="82.93" y="295.24" width="2.86" height="2.86" transform="translate(-212.31 381.04) rotate(-90)"/><rect class="cls-10" x="82.93" y="292.39" width="2.86" height="2.86" transform="translate(-209.45 378.18) rotate(-90)"/><rect class="cls-4" x="77.21" y="295.24" width="2.86" height="2.86" transform="translate(375.32 218.03) rotate(90)"/><rect class="cls-4" x="80.07" y="306.68" width="2.86" height="2.86" transform="translate(389.62 226.61) rotate(90)"/><rect class="cls-5" x="77.21" y="298.1" width="2.86" height="2.86" transform="translate(378.18 220.89) rotate(90)"/><rect class="cls-5" x="77.21" y="292.39" width="2.86" height="2.86" transform="translate(372.46 215.17) rotate(90)"/><rect class="cls-9" x="77.21" y="300.96" width="2.86" height="2.86" transform="translate(381.04 223.75) rotate(90)"/><rect class="cls-9" x="77.21" y="306.68" width="2.86" height="2.86" transform="translate(386.76 229.47) rotate(90)"/><rect class="cls-9" x="80.07" y="298.1" width="2.86" height="2.86" transform="translate(381.04 218.03) rotate(90)"/><rect class="cls-10" x="77.21" y="303.82" width="2.86" height="2.86" transform="translate(383.9 226.61) rotate(90)"/><rect class="cls-4" x="74.35" y="292.39" width="2.86" height="2.86" transform="translate(369.6 218.03) rotate(90)"/><rect class="cls-5" x="74.35" y="295.24" width="2.86" height="2.86" transform="translate(372.46 220.89) rotate(90)"/><rect class="cls-9" x="74.35" y="298.1" width="2.86" height="2.86" transform="translate(375.32 223.75) rotate(90)"/><rect class="cls-10" x="74.35" y="300.96" width="2.86" height="2.86" transform="translate(378.18 226.61) rotate(90)"/><rect class="cls-4" x="71.49" y="298.1" width="2.86" height="2.86" transform="translate(372.46 226.61) rotate(90)"/><rect class="cls-5" x="71.49" y="300.96" width="2.86" height="2.86" transform="translate(375.32 229.47) rotate(90)"/><rect class="cls-9" x="71.49" y="303.82" width="2.86" height="2.86" transform="translate(378.18 232.33) rotate(90)"/><rect class="cls-10" x="71.49" y="306.68" width="2.86" height="2.86" transform="translate(381.04 235.19) rotate(90)"/><rect class="cls-4" x="68.63" y="300.96" width="2.86" height="2.86" transform="translate(372.46 232.33) rotate(90)"/><rect class="cls-5" x="68.63" y="303.82" width="2.86" height="2.86" transform="translate(375.32 235.19) rotate(90)"/><rect class="cls-4" x="74.35" y="303.82" width="2.86" height="2.86" transform="translate(381.04 229.47) rotate(90)"/><rect class="cls-5" x="74.35" y="306.68" width="2.86" height="2.86" transform="translate(383.9 232.33) rotate(90)"/><rect class="cls-9" x="68.63" y="292.39" width="2.86" height="2.86" transform="translate(363.88 223.75) rotate(90)"/><rect class="cls-10" x="68.63" y="295.24" width="2.86" height="2.86" transform="translate(366.74 226.61) rotate(90)"/><rect class="cls-9" x="71.49" y="295.24" width="2.86" height="2.86" transform="translate(-223.75 369.6) rotate(-90)"/><rect class="cls-10" x="71.49" y="292.39" width="2.86" height="2.86" transform="translate(-220.89 366.74) rotate(-90)"/><rect class="cls-4" x="65.77" y="295.24" width="2.86" height="2.86" transform="translate(363.88 229.47) rotate(90)"/><rect class="cls-4" x="68.63" y="306.68" width="2.86" height="2.86" transform="translate(378.18 238.05) rotate(90)"/><rect class="cls-5" x="65.77" y="298.1" width="2.86" height="2.86" transform="translate(366.74 232.33) rotate(90)"/><rect class="cls-5" x="65.77" y="292.39" width="2.86" height="2.86" transform="translate(361.02 226.61) rotate(90)"/><rect class="cls-9" x="65.77" y="300.96" width="2.86" height="2.86" transform="translate(369.6 235.19) rotate(90)"/><rect class="cls-9" x="65.77" y="306.68" width="2.86" height="2.86" transform="translate(375.32 240.91) rotate(90)"/><rect class="cls-9" x="68.63" y="298.1" width="2.86" height="2.86" transform="translate(369.6 229.47) rotate(90)"/><rect class="cls-10" x="65.77" y="303.82" width="2.86" height="2.86" transform="translate(372.46 238.05) rotate(90)"/><rect class="cls-4" x="62.91" y="292.39" width="2.86" height="2.86" transform="translate(358.16 229.47) rotate(90)"/><rect class="cls-5" x="62.91" y="295.24" width="2.86" height="2.86" transform="translate(361.02 232.33) rotate(90)"/><rect class="cls-9" x="62.91" y="298.1" width="2.86" height="2.86" transform="translate(363.88 235.19) rotate(90)"/><rect class="cls-10" x="62.91" y="300.96" width="2.86" height="2.86" transform="translate(366.74 238.05) rotate(90)"/><rect class="cls-4" x="60.06" y="298.1" width="2.86" height="2.86" transform="translate(361.02 238.05) rotate(90)"/><rect class="cls-5" x="60.06" y="300.96" width="2.86" height="2.86" transform="translate(363.88 240.91) rotate(90)"/><rect class="cls-9" x="60.06" y="303.82" width="2.86" height="2.86" transform="translate(366.74 243.77) rotate(90)"/><rect class="cls-10" x="60.06" y="306.68" width="2.86" height="2.86" transform="translate(369.6 246.63) rotate(90)"/><rect class="cls-4" x="57.2" y="300.96" width="2.86" height="2.86" transform="translate(361.02 243.77) rotate(90)"/><rect class="cls-5" x="57.2" y="303.82" width="2.86" height="2.86" transform="translate(363.88 246.63) rotate(90)"/><rect class="cls-4" x="62.91" y="303.82" width="2.86" height="2.86" transform="translate(369.6 240.91) rotate(90)"/><rect class="cls-5" x="62.91" y="306.68" width="2.86" height="2.86" transform="translate(372.46 243.77) rotate(90)"/><rect class="cls-9" x="57.2" y="292.39" width="2.86" height="2.86" transform="translate(352.44 235.19) rotate(90)"/><rect class="cls-10" x="57.2" y="295.24" width="2.86" height="2.86" transform="translate(355.3 238.05) rotate(90)"/><rect class="cls-9" x="60.06" y="295.24" width="2.86" height="2.86" transform="translate(-235.19 358.16) rotate(-90)"/><rect class="cls-10" x="60.06" y="292.39" width="2.86" height="2.86" transform="translate(-232.33 355.3) rotate(-90)"/><rect class="cls-9" x="65.77" y="289.53" width="2.86" height="2.86" transform="translate(358.16 223.75) rotate(90)"/><rect class="cls-10" x="68.63" y="289.53" width="2.86" height="2.86" transform="translate(-220.89 361.02) rotate(-90)"/><rect class="cls-4" x="54.34" y="295.24" width="2.86" height="2.86" transform="translate(352.44 240.91) rotate(90)"/><rect class="cls-4" x="57.2" y="306.68" width="2.86" height="2.86" transform="translate(366.74 249.49) rotate(90)"/><rect class="cls-5" x="54.34" y="298.1" width="2.86" height="2.86" transform="translate(355.3 243.77) rotate(90)"/><rect class="cls-5" x="54.34" y="292.39" width="2.86" height="2.86" transform="translate(349.58 238.05) rotate(90)"/><rect class="cls-9" x="88.65" y="289.53" width="2.86" height="2.86" transform="translate(381.04 200.87) rotate(90)"/><rect class="cls-5" x="85.79" y="289.53" width="2.86" height="2.86" transform="translate(378.18 203.73) rotate(90)"/><rect class="cls-4" x="82.93" y="289.53" width="2.86" height="2.86" transform="translate(375.32 206.59) rotate(90)"/><rect class="cls-9" x="77.21" y="289.53" width="2.86" height="2.86" transform="translate(369.6 212.31) rotate(90)"/><rect class="cls-10" x="80.07" y="289.53" width="2.86" height="2.86" transform="translate(-209.45 372.46) rotate(-90)"/><rect class="cls-5" x="74.35" y="289.53" width="2.86" height="2.86" transform="translate(366.74 215.17) rotate(90)"/><rect class="cls-4" x="71.49" y="289.53" width="2.86" height="2.86" transform="translate(363.88 218.03) rotate(90)"/><rect class="cls-5" x="62.91" y="289.53" width="2.86" height="2.86" transform="translate(355.3 226.61) rotate(90)"/><rect class="cls-9" x="54.34" y="300.96" width="2.86" height="2.86" transform="translate(358.16 246.63) rotate(90)"/><rect class="cls-9" x="54.34" y="306.68" width="2.86" height="2.86" transform="translate(363.88 252.35) rotate(90)"/><rect class="cls-9" x="57.2" y="298.1" width="2.86" height="2.86" transform="translate(358.16 240.91) rotate(90)"/><rect class="cls-10" x="54.34" y="303.82" width="2.86" height="2.86" transform="translate(361.02 249.49) rotate(90)"/><rect class="cls-4" x="108.67" y="336.47" width="2.86" height="2.86" transform="translate(448 227.8) rotate(90)"/><rect class="cls-5" x="108.67" y="339.33" width="2.86" height="2.86" transform="translate(450.86 230.66) rotate(90)"/><rect class="cls-9" x="108.67" y="342.19" width="2.86" height="2.86" transform="translate(453.72 233.52) rotate(90)"/><rect class="cls-10" x="108.67" y="345.05" width="2.86" height="2.86" transform="translate(456.58 236.38) rotate(90)"/><rect class="cls-9" x="111.53" y="347.91" width="2.86" height="2.86" transform="translate(462.3 236.38) rotate(90)"/><rect class="cls-10" x="111.53" y="350.77" width="2.86" height="2.86" transform="translate(465.16 239.24) rotate(90)"/><rect class="cls-9" x="111.53" y="336.47" width="2.86" height="2.86" transform="translate(450.86 224.94) rotate(90)"/><rect class="cls-10" x="111.53" y="339.33" width="2.86" height="2.86" transform="translate(453.72 227.8) rotate(90)"/><rect class="cls-4" x="105.81" y="342.19" width="2.86" height="2.86" transform="translate(450.86 236.38) rotate(90)"/><rect class="cls-5" x="105.81" y="345.05" width="2.86" height="2.86" transform="translate(453.72 239.24) rotate(90)"/><rect class="cls-9" x="105.81" y="347.91" width="2.86" height="2.86" transform="translate(456.58 242.1) rotate(90)"/><rect class="cls-10" x="105.81" y="350.77" width="2.86" height="2.86" transform="translate(459.44 244.96) rotate(90)"/><rect class="cls-4" x="102.95" y="345.05" width="2.86" height="2.86" transform="translate(450.86 242.1) rotate(90)"/><rect class="cls-5" x="102.95" y="347.91" width="2.86" height="2.86" transform="translate(453.72 244.96) rotate(90)"/><rect class="cls-4" x="108.67" y="347.91" width="2.86" height="2.86" transform="translate(459.44 239.24) rotate(90)"/><rect class="cls-5" x="108.67" y="350.77" width="2.86" height="2.86" transform="translate(462.3 242.1) rotate(90)"/><rect class="cls-9" x="102.95" y="336.47" width="2.86" height="2.86" transform="translate(442.28 233.52) rotate(90)"/><rect class="cls-10" x="102.95" y="339.33" width="2.86" height="2.86" transform="translate(445.14 236.38) rotate(90)"/><rect class="cls-9" x="105.81" y="339.33" width="2.86" height="2.86" transform="translate(-233.52 448) rotate(-90)"/><rect class="cls-10" x="105.81" y="336.47" width="2.86" height="2.86" transform="translate(-230.66 445.14) rotate(-90)"/><rect class="cls-4" x="100.09" y="339.33" width="2.86" height="2.86" transform="translate(442.28 239.24) rotate(90)"/><rect class="cls-4" x="102.95" y="350.77" width="2.86" height="2.86" transform="translate(456.58 247.82) rotate(90)"/><rect class="cls-5" x="100.09" y="342.19" width="2.86" height="2.86" transform="translate(445.14 242.1) rotate(90)"/><rect class="cls-5" x="100.09" y="336.47" width="2.86" height="2.86" transform="translate(439.42 236.38) rotate(90)"/><rect class="cls-9" x="100.09" y="345.05" width="2.86" height="2.86" transform="translate(448 244.96) rotate(90)"/><rect class="cls-9" x="100.09" y="350.77" width="2.86" height="2.86" transform="translate(453.72 250.68) rotate(90)"/><rect class="cls-9" x="102.95" y="342.19" width="2.86" height="2.86" transform="translate(448 239.24) rotate(90)"/><rect class="cls-10" x="100.09" y="347.91" width="2.86" height="2.86" transform="translate(450.86 247.82) rotate(90)"/><rect class="cls-4" x="97.23" y="336.47" width="2.86" height="2.86" transform="translate(436.56 239.24) rotate(90)"/><rect class="cls-5" x="97.23" y="339.33" width="2.86" height="2.86" transform="translate(439.42 242.1) rotate(90)"/><rect class="cls-9" x="97.23" y="342.19" width="2.86" height="2.86" transform="translate(442.28 244.96) rotate(90)"/><rect class="cls-10" x="97.23" y="345.05" width="2.86" height="2.86" transform="translate(445.14 247.82) rotate(90)"/><rect class="cls-4" x="94.37" y="342.19" width="2.86" height="2.86" transform="translate(439.42 247.82) rotate(90)"/><rect class="cls-5" x="94.37" y="345.05" width="2.86" height="2.86" transform="translate(442.28 250.68) rotate(90)"/><rect class="cls-9" x="94.37" y="347.91" width="2.86" height="2.86" transform="translate(445.14 253.54) rotate(90)"/><rect class="cls-10" x="94.37" y="350.77" width="2.86" height="2.86" transform="translate(448 256.4) rotate(90)"/><rect class="cls-4" x="91.51" y="345.05" width="2.86" height="2.86" transform="translate(439.42 253.54) rotate(90)"/><rect class="cls-5" x="91.51" y="347.91" width="2.86" height="2.86" transform="translate(442.28 256.4) rotate(90)"/><rect class="cls-4" x="97.23" y="347.91" width="2.86" height="2.86" transform="translate(448 250.68) rotate(90)"/><rect class="cls-5" x="97.23" y="350.77" width="2.86" height="2.86" transform="translate(450.86 253.54) rotate(90)"/><rect class="cls-9" x="91.51" y="336.47" width="2.86" height="2.86" transform="translate(430.84 244.96) rotate(90)"/><rect class="cls-10" x="91.51" y="339.33" width="2.86" height="2.86" transform="translate(433.7 247.82) rotate(90)"/><rect class="cls-9" x="94.37" y="339.33" width="2.86" height="2.86" transform="translate(-244.96 436.56) rotate(-90)"/><rect class="cls-10" x="94.37" y="336.47" width="2.86" height="2.86" transform="translate(-242.1 433.7) rotate(-90)"/><rect class="cls-4" x="88.65" y="339.33" width="2.86" height="2.86" transform="translate(430.84 250.68) rotate(90)"/><rect class="cls-4" x="91.51" y="350.77" width="2.86" height="2.86" transform="translate(445.14 259.26) rotate(90)"/><rect class="cls-5" x="88.65" y="342.19" width="2.86" height="2.86" transform="translate(433.7 253.54) rotate(90)"/><rect class="cls-5" x="88.65" y="336.47" width="2.86" height="2.86" transform="translate(427.98 247.82) rotate(90)"/><rect class="cls-9" x="88.65" y="345.05" width="2.86" height="2.86" transform="translate(436.56 256.4) rotate(90)"/><rect class="cls-9" x="88.65" y="350.77" width="2.86" height="2.86" transform="translate(442.28 262.12) rotate(90)"/><rect class="cls-9" x="91.51" y="342.19" width="2.86" height="2.86" transform="translate(436.56 250.68) rotate(90)"/><rect class="cls-10" x="88.65" y="347.91" width="2.86" height="2.86" transform="translate(439.42 259.26) rotate(90)"/><rect class="cls-4" x="85.79" y="336.47" width="2.86" height="2.86" transform="translate(425.12 250.68) rotate(90)"/><rect class="cls-5" x="85.79" y="339.33" width="2.86" height="2.86" transform="translate(427.98 253.54) rotate(90)"/><rect class="cls-9" x="85.79" y="342.19" width="2.86" height="2.86" transform="translate(430.84 256.4) rotate(90)"/><rect class="cls-10" x="85.79" y="345.05" width="2.86" height="2.86" transform="translate(433.7 259.26) rotate(90)"/><rect class="cls-4" x="82.93" y="342.19" width="2.86" height="2.86" transform="translate(427.98 259.26) rotate(90)"/><rect class="cls-5" x="82.93" y="345.05" width="2.86" height="2.86" transform="translate(430.84 262.12) rotate(90)"/><rect class="cls-9" x="82.93" y="347.91" width="2.86" height="2.86" transform="translate(433.7 264.98) rotate(90)"/><rect class="cls-10" x="82.93" y="350.77" width="2.86" height="2.86" transform="translate(436.56 267.84) rotate(90)"/><rect class="cls-4" x="80.07" y="345.05" width="2.86" height="2.86" transform="translate(427.98 264.98) rotate(90)"/><rect class="cls-5" x="80.07" y="347.91" width="2.86" height="2.86" transform="translate(430.84 267.84) rotate(90)"/><rect class="cls-4" x="85.79" y="347.91" width="2.86" height="2.86" transform="translate(436.56 262.12) rotate(90)"/><rect class="cls-5" x="85.79" y="350.77" width="2.86" height="2.86" transform="translate(439.42 264.98) rotate(90)"/><rect class="cls-9" x="80.07" y="336.47" width="2.86" height="2.86" transform="translate(419.4 256.4) rotate(90)"/><rect class="cls-10" x="80.07" y="339.33" width="2.86" height="2.86" transform="translate(422.26 259.26) rotate(90)"/><rect class="cls-9" x="82.93" y="339.33" width="2.86" height="2.86" transform="translate(-256.4 425.12) rotate(-90)"/><rect class="cls-10" x="82.93" y="336.47" width="2.86" height="2.86" transform="translate(-253.54 422.26) rotate(-90)"/><rect class="cls-4" x="77.21" y="339.33" width="2.86" height="2.86" transform="translate(419.4 262.12) rotate(90)"/><rect class="cls-4" x="80.07" y="350.77" width="2.86" height="2.86" transform="translate(433.7 270.7) rotate(90)"/><rect class="cls-5" x="77.21" y="342.19" width="2.86" height="2.86" transform="translate(422.26 264.98) rotate(90)"/><rect class="cls-5" x="77.21" y="336.47" width="2.86" height="2.86" transform="translate(416.54 259.26) rotate(90)"/><rect class="cls-9" x="77.21" y="345.05" width="2.86" height="2.86" transform="translate(425.12 267.84) rotate(90)"/><rect class="cls-9" x="77.21" y="350.77" width="2.86" height="2.86" transform="translate(430.84 273.56) rotate(90)"/><rect class="cls-9" x="80.07" y="342.19" width="2.86" height="2.86" transform="translate(425.12 262.12) rotate(90)"/><rect class="cls-10" x="77.21" y="347.91" width="2.86" height="2.86" transform="translate(427.98 270.7) rotate(90)"/><rect class="cls-4" x="74.35" y="336.47" width="2.86" height="2.86" transform="translate(413.68 262.12) rotate(90)"/><rect class="cls-5" x="74.35" y="339.33" width="2.86" height="2.86" transform="translate(416.54 264.98) rotate(90)"/><rect class="cls-9" x="74.35" y="342.19" width="2.86" height="2.86" transform="translate(419.4 267.84) rotate(90)"/><rect class="cls-10" x="74.35" y="345.05" width="2.86" height="2.86" transform="translate(422.26 270.7) rotate(90)"/><rect class="cls-4" x="71.49" y="342.19" width="2.86" height="2.86" transform="translate(416.54 270.7) rotate(90)"/><rect class="cls-5" x="71.49" y="345.05" width="2.86" height="2.86" transform="translate(419.4 273.56) rotate(90)"/><rect class="cls-9" x="71.49" y="347.91" width="2.86" height="2.86" transform="translate(422.26 276.42) rotate(90)"/><rect class="cls-10" x="71.49" y="350.77" width="2.86" height="2.86" transform="translate(425.12 279.27) rotate(90)"/><rect class="cls-4" x="68.63" y="345.05" width="2.86" height="2.86" transform="translate(416.54 276.42) rotate(90)"/><rect class="cls-5" x="68.63" y="347.91" width="2.86" height="2.86" transform="translate(419.4 279.27) rotate(90)"/><rect class="cls-4" x="74.35" y="347.91" width="2.86" height="2.86" transform="translate(425.12 273.56) rotate(90)"/><rect class="cls-5" x="74.35" y="350.77" width="2.86" height="2.86" transform="translate(427.98 276.42) rotate(90)"/><rect class="cls-9" x="68.63" y="336.47" width="2.86" height="2.86" transform="translate(407.96 267.84) rotate(90)"/><rect class="cls-10" x="68.63" y="339.33" width="2.86" height="2.86" transform="translate(410.82 270.7) rotate(90)"/><rect class="cls-9" x="71.49" y="339.33" width="2.86" height="2.86" transform="translate(-267.84 413.68) rotate(-90)"/><rect class="cls-10" x="71.49" y="336.47" width="2.86" height="2.86" transform="translate(-264.98 410.82) rotate(-90)"/><rect class="cls-4" x="65.77" y="339.33" width="2.86" height="2.86" transform="translate(407.96 273.56) rotate(90)"/><rect class="cls-4" x="68.63" y="350.77" width="2.86" height="2.86" transform="translate(422.26 282.13) rotate(90)"/><rect class="cls-5" x="65.77" y="342.19" width="2.86" height="2.86" transform="translate(410.82 276.42) rotate(90)"/><rect class="cls-5" x="65.77" y="336.47" width="2.86" height="2.86" transform="translate(405.1 270.7) rotate(90)"/><rect class="cls-9" x="65.77" y="345.05" width="2.86" height="2.86" transform="translate(413.68 279.27) rotate(90)"/><rect class="cls-9" x="65.77" y="350.77" width="2.86" height="2.86" transform="translate(419.4 284.99) rotate(90)"/><rect class="cls-9" x="68.63" y="342.19" width="2.86" height="2.86" transform="translate(413.68 273.56) rotate(90)"/><rect class="cls-10" x="65.77" y="347.91" width="2.86" height="2.86" transform="translate(416.54 282.13) rotate(90)"/><rect class="cls-4" x="62.91" y="336.47" width="2.86" height="2.86" transform="translate(402.25 273.56) rotate(90)"/><rect class="cls-5" x="62.91" y="339.33" width="2.86" height="2.86" transform="translate(405.1 276.42) rotate(90)"/><rect class="cls-9" x="62.91" y="342.19" width="2.86" height="2.86" transform="translate(407.96 279.27) rotate(90)"/><rect class="cls-10" x="62.91" y="345.05" width="2.86" height="2.86" transform="translate(410.82 282.13) rotate(90)"/><rect class="cls-4" x="60.06" y="342.19" width="2.86" height="2.86" transform="translate(405.1 282.13) rotate(90)"/><rect class="cls-5" x="60.06" y="345.05" width="2.86" height="2.86" transform="translate(407.96 284.99) rotate(90)"/><rect class="cls-9" x="60.06" y="347.91" width="2.86" height="2.86" transform="translate(410.82 287.85) rotate(90)"/><rect class="cls-10" x="60.06" y="350.77" width="2.86" height="2.86" transform="translate(413.68 290.71) rotate(90)"/><rect class="cls-4" x="57.2" y="345.05" width="2.86" height="2.86" transform="translate(405.1 287.85) rotate(90)"/><rect class="cls-5" x="57.2" y="347.91" width="2.86" height="2.86" transform="translate(407.96 290.71) rotate(90)"/><rect class="cls-4" x="62.91" y="347.91" width="2.86" height="2.86" transform="translate(413.68 284.99) rotate(90)"/><rect class="cls-5" x="62.91" y="350.77" width="2.86" height="2.86" transform="translate(416.54 287.85) rotate(90)"/><rect class="cls-9" x="57.2" y="336.47" width="2.86" height="2.86" transform="translate(396.53 279.27) rotate(90)"/><rect class="cls-10" x="57.2" y="339.33" width="2.86" height="2.86" transform="translate(399.39 282.13) rotate(90)"/><rect class="cls-9" x="60.06" y="339.33" width="2.86" height="2.86" transform="translate(-279.27 402.25) rotate(-90)"/><rect class="cls-10" x="60.06" y="336.47" width="2.86" height="2.86" transform="translate(-276.42 399.39) rotate(-90)"/><rect class="cls-4" x="54.34" y="339.33" width="2.86" height="2.86" transform="translate(396.53 284.99) rotate(90)"/><rect class="cls-4" x="57.2" y="350.77" width="2.86" height="2.86" transform="translate(410.82 293.57) rotate(90)"/><rect class="cls-5" x="54.34" y="342.19" width="2.86" height="2.86" transform="translate(399.39 287.85) rotate(90)"/><rect class="cls-5" x="54.34" y="336.47" width="2.86" height="2.86" transform="translate(393.67 282.13) rotate(90)"/><rect class="cls-9" x="54.34" y="345.05" width="2.86" height="2.86" transform="translate(402.25 290.71) rotate(90)"/><rect class="cls-9" x="54.34" y="350.77" width="2.86" height="2.86" transform="translate(407.96 296.43) rotate(90)"/><rect class="cls-9" x="57.2" y="342.19" width="2.86" height="2.86" transform="translate(402.25 284.99) rotate(90)"/><rect class="cls-10" x="54.34" y="347.91" width="2.86" height="2.86" transform="translate(405.1 293.57) rotate(90)"/><rect class="cls-4" x="51.48" y="350.77" width="2.86" height="2.86" transform="translate(105.81 704.4) rotate(-180)"/><rect class="cls-5" x="48.62" y="350.77" width="2.86" height="2.86" transform="translate(100.09 704.4) rotate(-180)"/><rect class="cls-9" x="45.76" y="350.77" width="2.86" height="2.86" transform="translate(94.37 704.4) rotate(-180)"/><rect class="cls-10" x="42.9" y="350.77" width="2.86" height="2.86" transform="translate(88.65 704.4) rotate(-180)"/><rect class="cls-4" x="45.76" y="347.91" width="2.86" height="2.86" transform="translate(94.37 698.68) rotate(-180)"/><rect class="cls-5" x="42.9" y="347.91" width="2.86" height="2.86" transform="translate(88.65 698.68) rotate(-180)"/><rect class="cls-9" x="40.04" y="347.91" width="2.86" height="2.86" transform="translate(82.93 698.68) rotate(-180)"/><rect class="cls-10" x="37.18" y="347.91" width="2.86" height="2.86" transform="translate(77.21 698.68) rotate(-180)"/><rect class="cls-4" x="42.9" y="345.05" width="2.86" height="2.86" transform="translate(88.65 692.96) rotate(-180)"/><rect class="cls-5" x="40.04" y="345.05" width="2.86" height="2.86" transform="translate(82.93 692.96) rotate(-180)"/><rect class="cls-4" x="40.04" y="350.77" width="2.86" height="2.86" transform="translate(82.93 704.4) rotate(-180)"/><rect class="cls-5" x="37.18" y="350.77" width="2.86" height="2.86" transform="translate(77.21 704.4) rotate(-180)"/><rect class="cls-9" x="51.48" y="345.05" width="2.86" height="2.86" transform="translate(105.81 692.96) rotate(-180)"/><rect class="cls-10" x="48.62" y="345.05" width="2.86" height="2.86" transform="translate(100.09 692.96) rotate(-180)"/><rect class="cls-9" x="48.62" y="347.91" width="2.86" height="2.86"/><rect class="cls-10" x="51.48" y="347.91" width="2.86" height="2.86"/><rect class="cls-9" x="108.67" y="353.63" width="2.86" height="2.86" transform="translate(465.16 244.96) rotate(90)"/><rect class="cls-10" x="108.67" y="356.49" width="2.86" height="2.86" transform="translate(468.02 247.82) rotate(90)"/><rect class="cls-5" x="105.81" y="353.63" width="2.86" height="2.86" transform="translate(462.3 247.82) rotate(90)"/><rect class="cls-4" x="111.53" y="353.63" width="2.86" height="2.86" transform="translate(468.02 242.1) rotate(90)"/><rect class="cls-5" x="111.53" y="356.49" width="2.86" height="2.86" transform="translate(470.88 244.96) rotate(90)"/><rect class="cls-4" x="105.81" y="356.49" width="2.86" height="2.86" transform="translate(465.16 250.68) rotate(90)"/><rect class="cls-9" x="102.95" y="356.49" width="2.86" height="2.86" transform="translate(462.3 253.54) rotate(90)"/><rect class="cls-10" x="102.95" y="353.63" width="2.86" height="2.86" transform="translate(459.44 250.68) rotate(90)"/><rect class="cls-9" x="97.23" y="353.63" width="2.86" height="2.86" transform="translate(453.72 256.4) rotate(90)"/><rect class="cls-10" x="97.23" y="356.49" width="2.86" height="2.86" transform="translate(456.58 259.26) rotate(90)"/><rect class="cls-5" x="94.37" y="353.63" width="2.86" height="2.86" transform="translate(450.86 259.26) rotate(90)"/><rect class="cls-4" x="100.09" y="353.63" width="2.86" height="2.86" transform="translate(456.58 253.54) rotate(90)"/><rect class="cls-5" x="100.09" y="356.49" width="2.86" height="2.86" transform="translate(459.44 256.4) rotate(90)"/><rect class="cls-4" x="94.37" y="356.49" width="2.86" height="2.86" transform="translate(453.72 262.12) rotate(90)"/><rect class="cls-9" x="91.51" y="356.49" width="2.86" height="2.86" transform="translate(450.86 264.98) rotate(90)"/><rect class="cls-10" x="91.51" y="353.63" width="2.86" height="2.86" transform="translate(448 262.12) rotate(90)"/><rect class="cls-9" x="85.79" y="353.63" width="2.86" height="2.86" transform="translate(442.28 267.84) rotate(90)"/><rect class="cls-10" x="85.79" y="356.49" width="2.86" height="2.86" transform="translate(445.14 270.7) rotate(90)"/><rect class="cls-5" x="82.93" y="353.63" width="2.86" height="2.86" transform="translate(439.42 270.7) rotate(90)"/><rect class="cls-4" x="88.65" y="353.63" width="2.86" height="2.86" transform="translate(445.14 264.98) rotate(90)"/><rect class="cls-5" x="88.65" y="356.49" width="2.86" height="2.86" transform="translate(448 267.84) rotate(90)"/><rect class="cls-4" x="82.93" y="356.49" width="2.86" height="2.86" transform="translate(442.28 273.56) rotate(90)"/><rect class="cls-9" x="80.07" y="356.49" width="2.86" height="2.86" transform="translate(439.42 276.42) rotate(90)"/><rect class="cls-10" x="80.07" y="353.63" width="2.86" height="2.86" transform="translate(436.56 273.56) rotate(90)"/><rect class="cls-9" x="74.35" y="353.63" width="2.86" height="2.86" transform="translate(430.84 279.27) rotate(90)"/><rect class="cls-10" x="74.35" y="356.49" width="2.86" height="2.86" transform="translate(433.7 282.13) rotate(90)"/><rect class="cls-5" x="71.49" y="353.63" width="2.86" height="2.86" transform="translate(427.98 282.13) rotate(90)"/><rect class="cls-4" x="77.21" y="353.63" width="2.86" height="2.86" transform="translate(433.7 276.42) rotate(90)"/><rect class="cls-5" x="77.21" y="356.49" width="2.86" height="2.86" transform="translate(436.56 279.27) rotate(90)"/><rect class="cls-4" x="71.49" y="356.49" width="2.86" height="2.86" transform="translate(430.84 284.99) rotate(90)"/><rect class="cls-9" x="68.63" y="356.49" width="2.86" height="2.86" transform="translate(427.98 287.85) rotate(90)"/><rect class="cls-10" x="68.63" y="353.63" width="2.86" height="2.86" transform="translate(425.12 284.99) rotate(90)"/><rect class="cls-9" x="62.91" y="353.63" width="2.86" height="2.86" transform="translate(419.4 290.71) rotate(90)"/><rect class="cls-10" x="62.91" y="356.49" width="2.86" height="2.86" transform="translate(422.26 293.57) rotate(90)"/><rect class="cls-5" x="60.06" y="353.63" width="2.86" height="2.86" transform="translate(416.54 293.57) rotate(90)"/><rect class="cls-4" x="65.77" y="353.63" width="2.86" height="2.86" transform="translate(422.26 287.85) rotate(90)"/><rect class="cls-5" x="65.77" y="356.49" width="2.86" height="2.86" transform="translate(425.12 290.71) rotate(90)"/><rect class="cls-4" x="60.06" y="356.49" width="2.86" height="2.86" transform="translate(419.4 296.43) rotate(90)"/><rect class="cls-9" x="57.2" y="356.49" width="2.86" height="2.86" transform="translate(416.54 299.29) rotate(90)"/><rect class="cls-10" x="57.2" y="353.63" width="2.86" height="2.86" transform="translate(413.68 296.43) rotate(90)"/><rect class="cls-4" x="54.34" y="356.49" width="2.86" height="2.86" transform="translate(111.53 715.84) rotate(-180)"/><rect class="cls-5" x="51.48" y="356.49" width="2.86" height="2.86" transform="translate(105.81 715.84) rotate(-180)"/><rect class="cls-9" x="48.62" y="356.49" width="2.86" height="2.86" transform="translate(100.09 715.84) rotate(-180)"/><rect class="cls-4" x="48.62" y="353.63" width="2.86" height="2.86" transform="translate(100.09 710.12) rotate(-180)"/><rect class="cls-9" x="51.48" y="353.63" width="2.86" height="2.86"/><rect class="cls-10" x="54.34" y="353.63" width="2.86" height="2.86"/><rect class="cls-4" x="48.62" y="342.19" width="2.86" height="2.86" transform="translate(100.09 687.24) rotate(-180)"/><rect class="cls-4" x="37.18" y="345.05" width="2.86" height="2.86" transform="translate(77.21 692.96) rotate(-180)"/><rect class="cls-5" x="45.76" y="342.19" width="2.86" height="2.86" transform="translate(94.37 687.24) rotate(-180)"/><rect class="cls-5" x="51.48" y="342.19" width="2.86" height="2.86" transform="translate(105.81 687.24) rotate(-180)"/><rect class="cls-9" x="42.9" y="342.19" width="2.86" height="2.86" transform="translate(88.65 687.24) rotate(-180)"/><rect class="cls-9" x="37.18" y="342.19" width="2.86" height="2.86" transform="translate(77.21 687.24) rotate(-180)"/><rect class="cls-9" x="45.76" y="345.05" width="2.86" height="2.86" transform="translate(94.37 692.96) rotate(-180)"/><rect class="cls-10" x="40.04" y="342.19" width="2.86" height="2.86" transform="translate(82.93 687.24) rotate(-180)"/><rect class="cls-4" x="51.48" y="339.33" width="2.86" height="2.86" transform="translate(105.81 681.52) rotate(-180)"/><rect class="cls-5" x="48.62" y="339.33" width="2.86" height="2.86" transform="translate(100.09 681.52) rotate(-180)"/><rect class="cls-9" x="45.76" y="339.33" width="2.86" height="2.86" transform="translate(94.37 681.52) rotate(-180)"/><rect class="cls-10" x="42.9" y="339.33" width="2.86" height="2.86" transform="translate(88.65 681.52) rotate(-180)"/><rect class="cls-4" x="45.76" y="336.47" width="2.86" height="2.86" transform="translate(94.37 675.8) rotate(-180)"/><rect class="cls-5" x="42.9" y="336.47" width="2.86" height="2.86" transform="translate(88.65 675.8) rotate(-180)"/><rect class="cls-9" x="40.04" y="336.47" width="2.86" height="2.86" transform="translate(82.93 675.8) rotate(-180)"/><rect class="cls-10" x="37.18" y="336.47" width="2.86" height="2.86" transform="translate(77.21 675.8) rotate(-180)"/><rect class="cls-4" x="42.9" y="333.61" width="2.86" height="2.86" transform="translate(88.65 670.08) rotate(-180)"/><rect class="cls-5" x="40.04" y="333.61" width="2.86" height="2.86" transform="translate(82.93 670.08) rotate(-180)"/><rect class="cls-4" x="40.04" y="339.33" width="2.86" height="2.86" transform="translate(82.93 681.52) rotate(-180)"/><rect class="cls-5" x="37.18" y="339.33" width="2.86" height="2.86" transform="translate(77.21 681.52) rotate(-180)"/><rect class="cls-9" x="51.48" y="333.61" width="2.86" height="2.86" transform="translate(105.81 670.08) rotate(-180)"/><rect class="cls-10" x="48.62" y="333.61" width="2.86" height="2.86" transform="translate(100.09 670.08) rotate(-180)"/><rect class="cls-9" x="48.62" y="336.47" width="2.86" height="2.86"/><rect class="cls-10" x="51.48" y="336.47" width="2.86" height="2.86"/><rect class="cls-4" x="48.62" y="330.75" width="2.86" height="2.86" transform="translate(100.09 664.36) rotate(-180)"/><rect class="cls-4" x="37.18" y="333.61" width="2.86" height="2.86" transform="translate(77.21 670.08) rotate(-180)"/><rect class="cls-5" x="45.76" y="330.75" width="2.86" height="2.86" transform="translate(94.37 664.36) rotate(-180)"/><rect class="cls-5" x="51.48" y="330.75" width="2.86" height="2.86" transform="translate(105.81 664.36) rotate(-180)"/><rect class="cls-4" x="111.53" y="330.75" width="2.86" height="2.86" transform="translate(445.14 219.22) rotate(90)"/><rect class="cls-5" x="111.53" y="333.61" width="2.86" height="2.86" transform="translate(448 222.08) rotate(90)"/><rect class="cls-9" x="105.81" y="330.75" width="2.86" height="2.86" transform="translate(439.42 224.94) rotate(90)"/><rect class="cls-10" x="105.81" y="333.61" width="2.86" height="2.86" transform="translate(442.28 227.8) rotate(90)"/><rect class="cls-9" x="108.67" y="333.61" width="2.86" height="2.86" transform="translate(-224.94 445.14) rotate(-90)"/><rect class="cls-10" x="108.67" y="330.75" width="2.86" height="2.86" transform="translate(-222.08 442.28) rotate(-90)"/><rect class="cls-4" x="102.95" y="333.61" width="2.86" height="2.86" transform="translate(439.42 230.66) rotate(90)"/><rect class="cls-5" x="102.95" y="330.75" width="2.86" height="2.86" transform="translate(436.56 227.8) rotate(90)"/><rect class="cls-4" x="100.09" y="330.75" width="2.86" height="2.86" transform="translate(433.7 230.66) rotate(90)"/><rect class="cls-5" x="100.09" y="333.61" width="2.86" height="2.86" transform="translate(436.56 233.52) rotate(90)"/><rect class="cls-9" x="94.37" y="330.75" width="2.86" height="2.86" transform="translate(427.98 236.38) rotate(90)"/><rect class="cls-10" x="94.37" y="333.61" width="2.86" height="2.86" transform="translate(430.84 239.24) rotate(90)"/><rect class="cls-9" x="97.23" y="333.61" width="2.86" height="2.86" transform="translate(-236.38 433.7) rotate(-90)"/><rect class="cls-10" x="97.23" y="330.75" width="2.86" height="2.86" transform="translate(-233.52 430.84) rotate(-90)"/><rect class="cls-4" x="91.51" y="333.61" width="2.86" height="2.86" transform="translate(427.98 242.1) rotate(90)"/><rect class="cls-5" x="91.51" y="330.75" width="2.86" height="2.86" transform="translate(425.12 239.24) rotate(90)"/><rect class="cls-4" x="88.65" y="330.75" width="2.86" height="2.86" transform="translate(422.26 242.1) rotate(90)"/><rect class="cls-5" x="88.65" y="333.61" width="2.86" height="2.86" transform="translate(425.12 244.96) rotate(90)"/><rect class="cls-9" x="82.93" y="330.75" width="2.86" height="2.86" transform="translate(416.54 247.82) rotate(90)"/><rect class="cls-10" x="82.93" y="333.61" width="2.86" height="2.86" transform="translate(419.4 250.68) rotate(90)"/><rect class="cls-9" x="85.79" y="333.61" width="2.86" height="2.86" transform="translate(-247.82 422.26) rotate(-90)"/><rect class="cls-10" x="85.79" y="330.75" width="2.86" height="2.86" transform="translate(-244.96 419.4) rotate(-90)"/><rect class="cls-4" x="80.07" y="333.61" width="2.86" height="2.86" transform="translate(416.54 253.54) rotate(90)"/><rect class="cls-5" x="80.07" y="330.75" width="2.86" height="2.86" transform="translate(413.68 250.68) rotate(90)"/><rect class="cls-4" x="77.21" y="330.75" width="2.86" height="2.86" transform="translate(410.82 253.54) rotate(90)"/><rect class="cls-5" x="77.21" y="333.61" width="2.86" height="2.86" transform="translate(413.68 256.4) rotate(90)"/><rect class="cls-9" x="71.49" y="330.75" width="2.86" height="2.86" transform="translate(405.1 259.26) rotate(90)"/><rect class="cls-10" x="71.49" y="333.61" width="2.86" height="2.86" transform="translate(407.96 262.12) rotate(90)"/><rect class="cls-9" x="74.35" y="333.61" width="2.86" height="2.86" transform="translate(-259.26 410.82) rotate(-90)"/><rect class="cls-10" x="74.35" y="330.75" width="2.86" height="2.86" transform="translate(-256.4 407.96) rotate(-90)"/><rect class="cls-4" x="68.63" y="333.61" width="2.86" height="2.86" transform="translate(405.1 264.98) rotate(90)"/><rect class="cls-5" x="68.63" y="330.75" width="2.86" height="2.86" transform="translate(402.25 262.12) rotate(90)"/><rect class="cls-4" x="65.77" y="330.75" width="2.86" height="2.86" transform="translate(399.39 264.98) rotate(90)"/><rect class="cls-5" x="65.77" y="333.61" width="2.86" height="2.86" transform="translate(402.25 267.84) rotate(90)"/><rect class="cls-9" x="60.06" y="330.75" width="2.86" height="2.86" transform="translate(393.67 270.7) rotate(90)"/><rect class="cls-10" x="60.06" y="333.61" width="2.86" height="2.86" transform="translate(396.53 273.56) rotate(90)"/><rect class="cls-9" x="62.91" y="333.61" width="2.86" height="2.86" transform="translate(-270.7 399.39) rotate(-90)"/><rect class="cls-10" x="62.91" y="330.75" width="2.86" height="2.86" transform="translate(-267.84 396.53) rotate(-90)"/><rect class="cls-4" x="57.2" y="333.61" width="2.86" height="2.86" transform="translate(393.67 276.42) rotate(90)"/><rect class="cls-4" x="57.2" y="327.89" width="2.86" height="2.86" transform="translate(387.95 270.7) rotate(90)"/><rect class="cls-5" x="57.2" y="330.75" width="2.86" height="2.86" transform="translate(390.81 273.56) rotate(90)"/><rect class="cls-4" x="54.34" y="333.61" width="2.86" height="2.86" transform="translate(111.53 670.08) rotate(-180)"/><rect class="cls-9" x="54.34" y="327.89" width="2.86" height="2.86" transform="translate(111.53 658.64) rotate(-180)"/><rect class="cls-10" x="54.34" y="330.75" width="2.86" height="2.86"/><rect class="cls-5" x="54.34" y="325.03" width="2.86" height="2.86" transform="translate(111.53 652.92) rotate(-180)"/><rect class="cls-9" x="42.9" y="330.75" width="2.86" height="2.86" transform="translate(88.65 664.36) rotate(-180)"/><rect class="cls-9" x="37.18" y="330.75" width="2.86" height="2.86" transform="translate(77.21 664.36) rotate(-180)"/><rect class="cls-9" x="45.76" y="333.61" width="2.86" height="2.86" transform="translate(94.37 670.08) rotate(-180)"/><rect class="cls-10" x="40.04" y="330.75" width="2.86" height="2.86" transform="translate(82.93 664.36) rotate(-180)"/><rect class="cls-4" x="51.48" y="327.89" width="2.86" height="2.86" transform="translate(105.81 658.64) rotate(-180)"/><rect class="cls-5" x="48.62" y="327.89" width="2.86" height="2.86" transform="translate(100.09 658.64) rotate(-180)"/><rect class="cls-9" x="45.76" y="327.89" width="2.86" height="2.86" transform="translate(94.37 658.64) rotate(-180)"/><rect class="cls-10" x="42.9" y="327.89" width="2.86" height="2.86" transform="translate(88.65 658.64) rotate(-180)"/><rect class="cls-4" x="45.76" y="325.03" width="2.86" height="2.86" transform="translate(94.37 652.92) rotate(-180)"/><rect class="cls-5" x="42.9" y="325.03" width="2.86" height="2.86" transform="translate(88.65 652.92) rotate(-180)"/><rect class="cls-9" x="40.04" y="325.03" width="2.86" height="2.86" transform="translate(82.93 652.92) rotate(-180)"/><rect class="cls-10" x="37.18" y="325.03" width="2.86" height="2.86" transform="translate(77.21 652.92) rotate(-180)"/><rect class="cls-4" x="42.9" y="322.17" width="2.86" height="2.86" transform="translate(88.65 647.2) rotate(-180)"/><rect class="cls-5" x="40.04" y="322.17" width="2.86" height="2.86" transform="translate(82.93 647.2) rotate(-180)"/><rect class="cls-4" x="40.04" y="327.89" width="2.86" height="2.86" transform="translate(82.93 658.64) rotate(-180)"/><rect class="cls-5" x="37.18" y="327.89" width="2.86" height="2.86" transform="translate(77.21 658.64) rotate(-180)"/><rect class="cls-9" x="51.48" y="322.17" width="2.86" height="2.86" transform="translate(105.81 647.2) rotate(-180)"/><rect class="cls-10" x="48.62" y="322.17" width="2.86" height="2.86" transform="translate(100.09 647.2) rotate(-180)"/><rect class="cls-9" x="48.62" y="325.03" width="2.86" height="2.86"/><rect class="cls-10" x="51.48" y="325.03" width="2.86" height="2.86"/><rect class="cls-4" x="48.62" y="319.31" width="2.86" height="2.86" transform="translate(100.09 641.48) rotate(-180)"/><rect class="cls-4" x="37.18" y="322.17" width="2.86" height="2.86" transform="translate(77.21 647.2) rotate(-180)"/><rect class="cls-5" x="45.76" y="319.31" width="2.86" height="2.86" transform="translate(94.37 641.48) rotate(-180)"/><rect class="cls-5" x="51.48" y="319.31" width="2.86" height="2.86" transform="translate(105.81 641.48) rotate(-180)"/><rect class="cls-9" x="42.9" y="319.31" width="2.86" height="2.86" transform="translate(88.65 641.48) rotate(-180)"/><rect class="cls-9" x="37.18" y="319.31" width="2.86" height="2.86" transform="translate(77.21 641.48) rotate(-180)"/><rect class="cls-9" x="45.76" y="322.17" width="2.86" height="2.86" transform="translate(94.37 647.2) rotate(-180)"/><rect class="cls-10" x="40.04" y="319.31" width="2.86" height="2.86" transform="translate(82.93 641.48) rotate(-180)"/><rect class="cls-4" x="51.48" y="316.45" width="2.86" height="2.86" transform="translate(105.81 635.76) rotate(-180)"/><rect class="cls-5" x="48.62" y="316.45" width="2.86" height="2.86" transform="translate(100.09 635.76) rotate(-180)"/><rect class="cls-9" x="45.76" y="316.45" width="2.86" height="2.86" transform="translate(94.37 635.76) rotate(-180)"/><rect class="cls-10" x="42.9" y="316.45" width="2.86" height="2.86" transform="translate(88.65 635.76) rotate(-180)"/><rect class="cls-4" x="45.76" y="313.59" width="2.86" height="2.86" transform="translate(94.37 630.05) rotate(-180)"/><rect class="cls-5" x="42.9" y="313.59" width="2.86" height="2.86" transform="translate(88.65 630.05) rotate(-180)"/><rect class="cls-9" x="40.04" y="313.59" width="2.86" height="2.86" transform="translate(82.93 630.05) rotate(-180)"/><rect class="cls-10" x="37.18" y="313.59" width="2.86" height="2.86" transform="translate(77.21 630.05) rotate(-180)"/><rect class="cls-4" x="42.9" y="310.73" width="2.86" height="2.86" transform="translate(88.65 624.33) rotate(-180)"/><rect class="cls-5" x="40.04" y="310.73" width="2.86" height="2.86" transform="translate(82.93 624.33) rotate(-180)"/><rect class="cls-4" x="40.04" y="316.45" width="2.86" height="2.86" transform="translate(82.93 635.76) rotate(-180)"/><rect class="cls-5" x="37.18" y="316.45" width="2.86" height="2.86" transform="translate(77.21 635.76) rotate(-180)"/><rect class="cls-9" x="51.48" y="310.73" width="2.86" height="2.86" transform="translate(105.81 624.33) rotate(-180)"/><rect class="cls-10" x="48.62" y="310.73" width="2.86" height="2.86" transform="translate(100.09 624.33) rotate(-180)"/><rect class="cls-9" x="48.62" y="313.59" width="2.86" height="2.86"/><rect class="cls-10" x="51.48" y="313.59" width="2.86" height="2.86"/><rect class="cls-5" x="54.34" y="325.03" width="2.86" height="2.86" transform="translate(111.53 652.92) rotate(-180)"/><rect class="cls-9" x="57.2" y="322.17" width="2.86" height="2.86" transform="translate(117.25 647.2) rotate(-180)"/><rect class="cls-10" x="57.2" y="325.03" width="2.86" height="2.86"/><rect class="cls-5" x="57.2" y="319.31" width="2.86" height="2.86" transform="translate(117.25 641.48) rotate(-180)"/><rect class="cls-4" x="54.34" y="322.17" width="2.86" height="2.86" transform="translate(111.53 647.2) rotate(-180)"/><rect class="cls-9" x="54.34" y="316.45" width="2.86" height="2.86" transform="translate(111.53 635.76) rotate(-180)"/><rect class="cls-10" x="54.34" y="319.31" width="2.86" height="2.86"/><rect class="cls-5" x="57.13" y="309.54" width="2.86" height="2.86" transform="translate(117.12 621.95) rotate(-180)"/><rect class="cls-10" x="54.27" y="309.54" width="2.86" height="2.86"/><rect class="cls-10" x="54.34" y="312.4" width="2.86" height="2.86"/><rect class="cls-4" x="62.85" y="309.54" width="2.86" height="2.86" transform="translate(128.56 621.95) rotate(-180)"/><rect class="cls-9" x="59.99" y="309.54" width="2.86" height="2.86"/><rect class="cls-5" x="54.34" y="313.59" width="2.86" height="2.86" transform="translate(111.53 630.05) rotate(-180)"/><rect class="cls-5" x="57.2" y="312.4" width="2.86" height="2.86" transform="translate(117.25 627.67) rotate(-180)"/><rect class="cls-4" x="48.62" y="307.87" width="2.86" height="2.86" transform="translate(100.09 618.61) rotate(-180)"/><rect class="cls-4" x="37.18" y="310.73" width="2.86" height="2.86" transform="translate(77.21 624.33) rotate(-180)"/><rect class="cls-5" x="45.76" y="307.87" width="2.86" height="2.86" transform="translate(94.37 618.61) rotate(-180)"/><rect class="cls-5" x="51.48" y="307.87" width="2.86" height="2.86" transform="translate(105.81 618.61) rotate(-180)"/><rect class="cls-9" x="42.9" y="307.87" width="2.86" height="2.86" transform="translate(88.65 618.61) rotate(-180)"/><rect class="cls-9" x="37.18" y="307.87" width="2.86" height="2.86" transform="translate(77.21 618.61) rotate(-180)"/><rect class="cls-9" x="45.76" y="310.73" width="2.86" height="2.86" transform="translate(94.37 624.33) rotate(-180)"/><rect class="cls-10" x="40.04" y="307.87" width="2.86" height="2.86" transform="translate(82.93 618.61) rotate(-180)"/><rect class="cls-4" x="51.48" y="305.01" width="2.86" height="2.86" transform="translate(105.81 612.89) rotate(-180)"/><rect class="cls-5" x="48.62" y="305.01" width="2.86" height="2.86" transform="translate(100.09 612.89) rotate(-180)"/><rect class="cls-9" x="45.76" y="305.01" width="2.86" height="2.86" transform="translate(94.37 612.89) rotate(-180)"/><rect class="cls-4" x="51.48" y="290.71" width="2.86" height="2.86" transform="translate(105.81 584.29) rotate(-180)"/><rect class="cls-5" x="48.62" y="290.71" width="2.86" height="2.86" transform="translate(100.09 584.29) rotate(-180)"/><rect class="cls-9" x="45.76" y="290.71" width="2.86" height="2.86" transform="translate(94.37 584.29) rotate(-180)"/><rect class="cls-4" x="60.06" y="289.53" width="2.86" height="2.86" transform="translate(122.97 581.91) rotate(-180)"/><rect class="cls-5" x="57.2" y="289.53" width="2.86" height="2.86" transform="translate(117.25 581.91) rotate(-180)"/><rect class="cls-9" x="54.34" y="289.53" width="2.86" height="2.86" transform="translate(111.53 581.91) rotate(-180)"/><rect class="cls-9" x="102.95" y="289.53" width="2.86" height="2.86" transform="translate(395.34 186.57) rotate(90)"/><rect class="cls-10" x="105.81" y="289.53" width="2.86" height="2.86" transform="translate(-183.71 398.2) rotate(-90)"/><rect class="cls-9" x="108.67" y="286.67" width="2.86" height="2.86" transform="translate(398.2 178) rotate(90)"/><rect class="cls-5" x="105.81" y="286.67" width="2.86" height="2.86" transform="translate(395.34 180.85) rotate(90)"/><rect class="cls-4" x="102.95" y="286.67" width="2.86" height="2.86" transform="translate(392.48 183.71) rotate(90)"/><rect class="cls-9" x="97.23" y="286.67" width="2.86" height="2.86" transform="translate(386.76 189.43) rotate(90)"/><rect class="cls-10" x="100.09" y="286.67" width="2.86" height="2.86" transform="translate(-186.57 389.62) rotate(-90)"/><rect class="cls-5" x="94.37" y="286.67" width="2.86" height="2.86" transform="translate(383.9 192.29) rotate(90)"/><rect class="cls-5" x="91.51" y="286.67" width="2.86" height="2.86" transform="translate(381.04 195.15) rotate(90)"/><rect class="cls-4" x="88.65" y="286.67" width="2.86" height="2.86" transform="translate(378.18 198.01) rotate(90)"/><rect class="cls-9" x="82.93" y="286.67" width="2.86" height="2.86" transform="translate(372.46 203.73) rotate(90)"/><rect class="cls-10" x="85.79" y="286.67" width="2.86" height="2.86" transform="translate(-200.87 375.32) rotate(-90)"/><rect class="cls-5" x="80.07" y="286.67" width="2.86" height="2.86" transform="translate(369.6 206.59) rotate(90)"/><rect class="cls-4" x="77.21" y="286.67" width="2.86" height="2.86" transform="translate(366.74 209.45) rotate(90)"/><rect class="cls-9" x="71.49" y="286.67" width="2.86" height="2.86" transform="translate(361.02 215.17) rotate(90)"/><rect class="cls-10" x="74.35" y="286.67" width="2.86" height="2.86" transform="translate(-212.31 363.88) rotate(-90)"/><rect class="cls-5" x="68.63" y="286.67" width="2.86" height="2.86" transform="translate(358.16 218.03) rotate(90)"/><rect class="cls-9" x="62.91" y="286.67" width="2.86" height="2.86" transform="translate(352.44 223.75) rotate(90)"/><rect class="cls-10" x="65.77" y="286.67" width="2.86" height="2.86" transform="translate(-220.89 355.3) rotate(-90)"/><rect class="cls-5" x="60.06" y="286.67" width="2.86" height="2.86" transform="translate(349.58 226.61) rotate(90)"/><rect class="cls-4" x="108.67" y="289.53" width="2.86" height="2.86" transform="translate(401.06 180.85) rotate(90)"/><rect class="cls-4" x="111.53" y="292.39" width="2.86" height="2.86" transform="translate(406.78 180.85) rotate(90)"/><rect class="cls-5" x="111.53" y="295.24" width="2.86" height="2.86" transform="translate(409.64 183.71) rotate(90)"/><rect class="cls-9" x="111.53" y="298.1" width="2.86" height="2.86" transform="translate(412.49 186.57) rotate(90)"/><rect class="cls-10" x="111.53" y="300.96" width="2.86" height="2.86" transform="translate(415.35 189.43) rotate(90)"/><rect class="cls-4" x="111.53" y="303.82" width="2.86" height="2.86" transform="translate(418.21 192.29) rotate(90)"/><rect class="cls-5" x="111.53" y="306.68" width="2.86" height="2.86" transform="translate(421.07 195.15) rotate(90)"/><rect class="cls-9" x="111.53" y="286.67" width="2.86" height="2.86" transform="translate(401.06 175.14) rotate(90)"/><rect class="cls-4" x="111.53" y="289.53" width="2.86" height="2.86" transform="translate(403.92 178) rotate(90)"/><rect class="cls-5" x="100.09" y="289.53" width="2.86" height="2.86" transform="translate(392.48 189.43) rotate(90)"/><rect class="cls-4" x="97.23" y="289.53" width="2.86" height="2.86" transform="translate(197.32 581.91) rotate(-180)"/><rect class="cls-5" x="94.37" y="289.53" width="2.86" height="2.86" transform="translate(191.6 581.91) rotate(-180)"/><rect class="cls-9" x="91.51" y="289.53" width="2.86" height="2.86" transform="translate(185.88 581.91) rotate(-180)"/><rect class="cls-10" x="42.9" y="305.01" width="2.86" height="2.86" transform="translate(88.65 612.89) rotate(-180)"/><rect class="cls-4" x="45.76" y="302.15" width="2.86" height="2.86" transform="translate(94.37 607.17) rotate(-180)"/><rect class="cls-5" x="42.9" y="302.15" width="2.86" height="2.86" transform="translate(88.65 607.17) rotate(-180)"/><rect class="cls-9" x="40.04" y="302.15" width="2.86" height="2.86" transform="translate(82.93 607.17) rotate(-180)"/><rect class="cls-10" x="37.18" y="302.15" width="2.86" height="2.86" transform="translate(77.21 607.17) rotate(-180)"/><rect class="cls-4" x="42.9" y="299.29" width="2.86" height="2.86" transform="translate(88.65 601.45) rotate(-180)"/><rect class="cls-5" x="40.04" y="299.29" width="2.86" height="2.86" transform="translate(82.93 601.45) rotate(-180)"/><rect class="cls-4" x="40.04" y="305.01" width="2.86" height="2.86" transform="translate(82.93 612.89) rotate(-180)"/><rect class="cls-5" x="37.18" y="305.01" width="2.86" height="2.86" transform="translate(77.21 612.89) rotate(-180)"/><rect class="cls-9" x="51.48" y="299.29" width="2.86" height="2.86" transform="translate(105.81 601.45) rotate(-180)"/><rect class="cls-10" x="48.62" y="299.29" width="2.86" height="2.86" transform="translate(100.09 601.45) rotate(-180)"/><rect class="cls-9" x="48.62" y="302.15" width="2.86" height="2.86"/><rect class="cls-10" x="51.48" y="302.15" width="2.86" height="2.86"/><rect class="cls-4" x="48.62" y="296.43" width="2.86" height="2.86" transform="translate(100.09 595.73) rotate(-180)"/><rect class="cls-4" x="37.18" y="299.29" width="2.86" height="2.86" transform="translate(77.21 601.45) rotate(-180)"/><rect class="cls-5" x="45.76" y="296.43" width="2.86" height="2.86" transform="translate(94.37 595.73) rotate(-180)"/><rect class="cls-5" x="51.48" y="296.43" width="2.86" height="2.86" transform="translate(105.81 595.73) rotate(-180)"/><rect class="cls-9" x="42.9" y="296.43" width="2.86" height="2.86" transform="translate(88.65 595.73) rotate(-180)"/><rect class="cls-9" x="37.18" y="296.43" width="2.86" height="2.86" transform="translate(77.21 595.73) rotate(-180)"/><rect class="cls-9" x="45.76" y="299.29" width="2.86" height="2.86" transform="translate(94.37 601.45) rotate(-180)"/><rect class="cls-4" x="42.9" y="293.57" width="2.86" height="2.86" transform="translate(88.65 590.01) rotate(-180)"/><rect class="cls-5" x="40.04" y="293.57" width="2.86" height="2.86" transform="translate(82.93 590.01) rotate(-180)"/><rect class="cls-9" x="51.48" y="293.57" width="2.86" height="2.86" transform="translate(105.81 590.01) rotate(-180)"/><rect class="cls-10" x="48.62" y="293.57" width="2.86" height="2.86" transform="translate(100.09 590.01) rotate(-180)"/><rect class="cls-4" x="37.18" y="293.57" width="2.86" height="2.86" transform="translate(77.21 590.01) rotate(-180)"/><rect class="cls-9" x="45.76" y="293.57" width="2.86" height="2.86" transform="translate(94.37 590.01) rotate(-180)"/><rect class="cls-10" x="40.04" y="296.43" width="2.86" height="2.86" transform="translate(82.93 595.73) rotate(-180)"/></g><rect class="cls-6" x="23.69" width="7.41" height="442.74"/></g></g></svg>